<svg viewBox="0 0 982 984" fill="none" xmlns="http://www.w3.org/2000/svg" style="fill-rule:evenodd;clip-rule:evenodd;stroke-linejoin:round;stroke-miterlimit:2;">
    <g transform="matrix(1,0,0,1,-9.147722,-8.433)">
        <g transform="matrix(6.353344,0,0,6.353344,-778.281163,-474.897535)">
            <path d="M169.498,155.103C209.244,155.141 209.254,155.104 210.602,154.852C213.272,154.354 214.162,152.464 220.105,142.27C233.914,118.587 233.014,115.729 241.5,115.662C275.556,115.394 276.229,114.576 278.019,116.886C279.672,119.019 278.636,119.585 238.069,190.245C234.246,196.904 228.552,194.192 194.502,194.719C187.594,194.826 189.048,197.814 171.054,227.243C165.708,235.987 163.052,227.216 157.003,216.769C128.471,167.5 123.403,159.872 124.077,157.378C124.815,154.646 126.029,155.14 169.498,155.103Z" style="fill:#CF2637;"/>
            <path d="M207.493,76.085C214.713,76.626 214.004,78.611 221.928,92.24C230.824,107.539 233.598,111.281 232.805,113.63C231.384,117.836 198.443,114.746 192.547,115.785C186.309,116.884 177.68,138.614 169.546,150.539C166.501,155.003 164.404,150.932 153.384,131.568C124.542,80.89 122.604,80.696 124.433,77.449C125.291,75.926 125.858,76.071 207.493,76.085Z" style="fill:#CF2637;"/>
        </g>
    </g>
</svg>
